<svg width="150" height="150" viewBox="0 0 150 150" fill="none" xmlns="http://www.w3.org/2000/svg">
<g id="eslint">
<path id="Vector" d="M139.837 78.2813L110.053 128.517C109.498 129.394 108.721 130.109 107.801 130.589C106.88 131.069 105.849 131.297 104.812 131.25H45.2203C44.1807 131.291 43.1488 131.056 42.2287 130.571C41.3086 130.085 40.5329 129.365 39.9797 128.484L10.1859 78.3281C9.65514 77.4242 9.37531 76.3951 9.37531 75.3469C9.37531 74.2987 9.65514 73.2695 10.1859 72.3656L39.9703 21.9188C40.503 20.9871 41.2649 20.2071 42.1837 19.6525C43.1025 19.0979 44.1478 18.7873 45.2203 18.75H104.794C105.866 18.7898 106.909 19.1026 107.827 19.6588C108.744 20.215 109.504 20.9961 110.034 21.9281L139.819 72.4875C140.346 73.3634 140.625 74.3666 140.625 75.3891C140.625 76.4115 140.346 77.4147 139.819 78.2906L139.837 78.2813ZM115.172 97.9688V52.9031L75 30.3094L34.875 52.9031V97.9688L75 120.558L115.172 97.9688Z" fill="#4B32C3"/>
<path id="Vector_2" d="M102.197 89.9438L75.2578 105.108L48.3422 89.9438V59.6156L75.2578 44.4469L102.197 59.6156V89.9438Z" fill="#8080F2"/>
</g>
</svg>
