<svg width="150" height="150" viewBox="0 0 150 150" fill="none" xmlns="http://www.w3.org/2000/svg">
<g id="express">
<path id="Vector" d="M150 116.227C144.544 117.614 141.169 116.287 138.141 111.741L116.606 81.9469L113.494 77.8219L88.3453 111.839C85.4719 115.931 82.4578 117.712 77.0953 116.264L109.298 73.0359L79.3172 33.9891C84.4734 32.9859 88.0359 33.4969 91.2 38.1141L113.536 68.2781L136.036 38.2781C138.919 34.1859 142.017 32.6297 147.192 34.1391L135.567 49.5516L119.817 70.0594C117.942 72.4031 118.2 74.0062 119.925 76.2703L150 116.227ZM0.0375 72.3141L2.67188 59.3578C9.84375 33.7172 39.2344 23.0625 59.5031 38.9063C71.3484 48.225 74.2922 61.4062 73.7063 76.1719H6.9375C5.93438 102.75 25.0641 118.791 49.4531 110.606C58.0078 107.733 63.0469 101.034 65.5687 92.6531C66.8484 88.4531 68.9672 87.7969 72.9141 88.9969C70.8984 99.4781 66.3516 108.234 56.7422 113.714C42.3844 121.917 21.8906 119.264 11.1094 107.864C4.6875 101.25 2.03438 92.8687 0.84375 83.9062C0.65625 82.425 0.28125 81.0141 0 79.5937C0.025 77.1687 0.0375 74.7438 0.0375 72.3187V72.3141ZM7.05938 70.5328H67.3969C67.0031 51.3141 55.0359 37.6641 38.6812 37.5469C20.7281 37.4063 7.8375 50.7328 7.05938 70.5328Z" fill="black"/>
</g>
</svg>
