<svg width="150" height="150" viewBox="0 0 150 150" fill="none" xmlns="http://www.w3.org/2000/svg">
<g id="jest">
<path id="Vector" d="M126.98 73.9969C126.98 70.7571 125.693 67.65 123.402 65.3591C121.111 63.0682 118.004 61.7812 114.764 61.7812C114.335 61.7808 113.906 61.8027 113.48 61.8469L130.261 12.3562H58.95L75.7078 61.8047C75.4641 61.8047 75.2156 61.7812 74.9672 61.7812C72.0501 61.7779 69.2281 62.8186 67.0116 64.715C64.7951 66.6115 63.3304 69.2385 62.8825 72.121C62.4345 75.0035 63.0329 77.9512 64.5693 80.4309C66.1058 82.9105 68.4788 84.7585 71.2594 85.6406C68.6609 90.1147 65.4254 94.187 61.6547 97.7297C56.7463 102.422 50.9147 106.041 44.5312 108.356C40.9547 106.661 38.1575 103.668 36.7079 99.9855C35.2583 96.3027 35.265 92.2062 36.7266 88.5281C37.0875 87.6844 37.4531 86.8312 37.8 85.9781C40.5237 85.3367 42.9447 83.7799 44.6586 81.568C46.3724 79.3561 47.2753 76.623 47.2163 73.8255C47.1572 71.0279 46.1399 68.3353 44.3343 66.1976C42.5287 64.06 40.0441 62.6067 37.2958 62.0808C34.5475 61.5548 31.7019 61.9879 29.2345 63.3077C26.7672 64.6276 24.8275 66.7542 23.7397 69.3323C22.6518 71.9104 22.4817 74.7837 23.2577 77.4722C24.0337 80.1606 25.7088 82.5013 28.0031 84.1031C24.1039 91.1733 21.128 98.7145 19.1484 106.542C17.4891 116.55 19.1484 127.167 27.7969 133.172C47.9531 147.145 69.8391 124.509 92.9109 118.823C101.273 116.761 110.452 117.094 117.816 112.828C120.476 111.313 122.77 109.23 124.536 106.729C126.301 104.227 127.494 101.368 128.03 98.3531C128.52 95.4807 128.427 92.539 127.758 89.703C127.089 86.8669 125.857 84.1942 124.134 81.8437C125.972 79.6476 126.978 76.8745 126.975 74.0109L126.98 73.9969ZM87.1875 74.0625V74.0203C87.191 71.9181 86.6507 69.8508 85.619 68.0191C84.5874 66.1875 83.0995 64.6539 81.3 63.5672L94.6312 36.5625L107.991 63.8156C106.315 64.9293 104.941 66.4407 103.991 68.2148C103.041 69.9889 102.546 71.9705 102.548 73.9828C102.548 74.0719 102.548 74.1609 102.548 74.25L87.1875 74.0625Z" fill="#C63D14"/>
<path id="Vector_2" d="M129.966 73.9969C129.961 70.4549 128.721 67.0255 126.46 64.2994C124.198 61.5734 121.057 59.7214 117.577 59.0625L134.423 9.375H54.7922L71.6672 59.1609C68.7212 59.8194 66.0381 61.3406 63.9604 63.5305C61.8826 65.7203 60.5043 68.4795 60.0013 71.456C59.4984 74.4326 59.8936 77.4914 61.1365 80.2424C62.3793 82.9933 64.4136 85.3117 66.9797 86.9016C64.8599 90.0509 62.3945 92.9533 59.6297 95.5547C55.3499 99.6494 50.3206 102.88 44.8172 105.07C42.2345 103.571 40.2767 101.193 39.3009 98.3711C38.3252 95.5487 38.3964 92.4696 39.5016 89.6953L39.6891 89.2594L40.0359 88.4391C43.1601 87.3559 45.8462 85.2843 47.6875 82.5378C49.5288 79.7913 50.4251 76.5197 50.2405 73.2182C50.0559 69.9168 48.8006 66.7654 46.6646 64.2414C44.5286 61.7173 41.6282 59.958 38.4028 59.2298C35.1774 58.5017 31.8026 58.8444 28.7894 60.2061C25.7762 61.5677 23.2887 63.8742 21.7037 66.7761C20.1187 69.6781 19.5225 73.0175 20.0054 76.2886C20.4882 79.5597 22.0239 82.5845 24.3797 84.9047C23.8734 85.9875 23.3391 87.0844 22.7906 88.2141C19.7514 93.8021 17.5408 99.8024 16.2281 106.027C14.0484 119.152 17.5641 129.666 26.1234 135.595C30.7183 138.881 36.2293 140.641 41.8781 140.625C51.8719 140.625 61.9828 135.605 71.8781 130.692C78.7919 126.932 86.0861 123.918 93.6375 121.702C96.3422 121.036 99.1266 120.633 102.075 120.206C108.082 119.726 113.939 118.09 119.325 115.388C122.362 113.653 124.981 111.271 126.996 108.412C129.01 105.552 130.371 102.285 130.983 98.8406C131.979 92.9895 130.829 86.9754 127.744 81.9047C129.203 79.5237 129.974 76.7848 129.97 73.9922L129.966 73.9969ZM123.998 73.9969C123.998 75.8233 123.457 77.6086 122.442 79.1272C121.427 80.6458 119.985 81.8294 118.298 82.5283C116.611 83.2273 114.754 83.4101 112.963 83.0538C111.171 82.6975 109.526 81.818 108.234 80.5266C106.943 79.2351 106.063 77.5897 105.707 75.7984C105.351 74.0071 105.534 72.1504 106.233 70.463C106.932 68.7757 108.115 67.3335 109.634 66.3188C111.152 65.3041 112.938 64.7625 114.764 64.7625C117.212 64.765 119.56 65.7387 121.291 67.4699C123.022 69.2012 123.996 71.5485 123.998 73.9969ZM126.094 15.3422L111.216 59.2172C110.578 59.3713 109.952 59.5671 109.341 59.8031L94.6453 29.8031L79.9031 59.625C79.2613 59.4026 78.6051 59.2241 77.9391 59.0906L63.1125 15.3422H126.094ZM74.9672 64.7625C76.7936 64.7625 78.579 65.3041 80.0975 66.3188C81.6161 67.3335 82.7997 68.7757 83.4986 70.463C84.1976 72.1504 84.3804 74.0071 84.0241 75.7984C83.6678 77.5897 82.7883 79.2351 81.4969 80.5266C80.2054 81.818 78.56 82.6975 76.7687 83.0538C74.9774 83.4101 73.1207 83.2273 71.4334 82.5283C69.746 81.8294 68.3038 80.6458 67.2891 79.1272C66.2744 77.6086 65.7328 75.8233 65.7328 73.9969C65.7353 71.5485 66.709 69.2012 68.4402 67.4699C70.1715 65.7387 72.5188 64.765 74.9672 64.7625ZM35.0203 64.8516C36.8475 64.8525 38.6333 65.3955 40.1518 66.4118C41.6703 67.4281 42.8531 68.872 43.5506 70.5608C44.2482 72.2496 44.429 74.1074 44.0702 75.899C43.7115 77.6906 42.8293 79.3355 41.5353 80.6256C40.2413 81.9156 38.5937 82.7928 36.801 83.1461C35.0083 83.4994 33.1511 83.3129 31.4644 82.6102C29.7778 81.9075 28.3375 80.7203 27.3258 79.1987C26.3141 77.6772 25.7766 75.8897 25.7813 74.0625C25.7837 71.6142 26.7574 69.2668 28.4887 67.5356C30.2199 65.8043 32.5673 64.8306 35.0156 64.8281L35.0203 64.8516ZM125.1 97.8234C124.637 100.407 123.611 102.858 122.095 105.001C120.58 107.145 118.611 108.928 116.33 110.227C111.596 112.525 106.47 113.907 101.222 114.3C98.2594 114.727 95.1984 115.167 92.2031 115.908C84.2294 118.217 76.5285 121.38 69.2344 125.344C54.4031 132.708 41.5781 139.069 29.5219 130.702C20.6766 124.57 21.0844 113.227 22.1156 107.011C23.3292 101.355 25.3532 95.9029 28.125 90.825C28.5563 89.9391 28.9781 89.0672 29.3906 88.2047C30.6498 88.708 31.9711 89.0392 33.3188 89.1891C32.1257 93.403 32.4591 97.9029 34.26 101.895C36.061 105.887 39.2139 109.115 43.1625 111.009L44.3109 111.6L45.525 111.169C52.297 108.724 58.4838 104.893 63.6891 99.9188C67.1274 96.6843 70.1477 93.0325 72.6797 89.0484C75.9193 89.5412 79.2315 88.9733 82.1219 87.4294C85.0123 85.8855 87.326 83.4484 88.7179 80.4818C90.1097 77.5152 90.505 74.178 89.8449 70.9683C89.1847 67.7586 87.5044 64.8484 85.0547 62.6719L94.6078 43.3547L104.259 63.0422C101.513 65.6887 99.8634 69.2715 99.6376 73.0786C99.4118 76.8857 100.627 80.6385 103.041 83.591C105.455 86.5436 108.891 88.4799 112.667 89.015C116.443 89.5502 120.282 88.6452 123.422 86.4797C125.163 89.9931 125.745 93.9677 125.086 97.8328L125.1 97.8234Z" fill="white"/>
</g>
</svg>
