<svg width="150" height="150" viewBox="0 0 150 150" fill="none" xmlns="http://www.w3.org/2000/svg">
<g id="prettier">
<path id="Rectangle" d="M101.784 40.1766H107.142C107.852 40.1766 108.533 40.4586 109.035 40.9605C109.537 41.4625 109.819 42.1433 109.819 42.8531C109.819 43.563 109.537 44.2438 109.035 44.7457C108.533 45.2477 107.852 45.5297 107.142 45.5297H101.784C101.074 45.5297 100.394 45.2477 99.8917 44.7457C99.3898 44.2438 99.1078 43.563 99.1078 42.8531C99.1078 42.1433 99.3898 41.4625 99.8917 40.9605C100.394 40.4586 101.074 40.1766 101.784 40.1766Z" fill="#56B3B4"/>
<path id="Rectangle_2" d="M21.4266 125.892H48.2109C48.9208 125.892 49.6016 126.174 50.1036 126.676C50.6055 127.178 50.8875 127.859 50.8875 128.569C50.8875 128.92 50.8183 129.268 50.6838 129.593C50.5493 129.918 50.3521 130.213 50.1036 130.461C49.855 130.71 49.56 130.907 49.2352 131.042C48.9105 131.176 48.5624 131.245 48.2109 131.245H21.4266C20.7175 131.245 20.0374 130.964 19.5356 130.463C19.0338 129.962 18.7512 129.282 18.75 128.573C18.7494 128.222 18.8182 127.873 18.9524 127.548C19.0866 127.222 19.2837 126.927 19.5323 126.678C19.7809 126.429 20.0762 126.231 20.4012 126.096C20.7262 125.962 21.0747 125.892 21.4266 125.892Z" fill="#EA5E5E"/>
<path id="Rectangle_3" d="M85.7156 83.0344H101.789C102.499 83.0344 103.18 83.3164 103.682 83.8183C104.184 84.3203 104.466 85.0011 104.466 85.7109C104.466 86.4208 104.184 87.1016 103.682 87.6035C103.18 88.1055 102.499 88.3875 101.789 88.3875H85.7156C85.0058 88.3875 84.325 88.1055 83.823 87.6035C83.3211 87.1016 83.0391 86.4208 83.0391 85.7109C83.0391 85.0011 83.3211 84.3203 83.823 83.8183C84.325 83.3164 85.0058 83.0344 85.7156 83.0344Z" fill="#BF85BF"/>
<path id="Rectangle_4" d="M53.5734 83.0344H75C75.7098 83.0344 76.3906 83.3164 76.8926 83.8183C77.3945 84.3203 77.6765 85.0011 77.6765 85.7109C77.6765 86.4208 77.3945 87.1016 76.8926 87.6035C76.3906 88.1055 75.7098 88.3875 75 88.3875H53.5734C52.8635 88.3875 52.1828 88.1055 51.6808 87.6035C51.1788 87.1016 50.8969 86.4208 50.8969 85.7109C50.8969 85.0011 51.1788 84.3203 51.6808 83.8183C52.1828 83.3164 52.8635 83.0344 53.5734 83.0344Z" fill="#EA5E5E"/>
<path id="Rectangle_5" d="M21.4266 83.0344H42.8578C43.5677 83.0344 44.2485 83.3164 44.7504 83.8183C45.2524 84.3203 45.5344 85.0011 45.5344 85.7109C45.5344 86.4208 45.2524 87.1016 44.7504 87.6035C44.2485 88.1055 43.5677 88.3875 42.8578 88.3875H21.4266C20.7175 88.3875 20.0374 88.1061 19.5356 87.6052C19.0338 87.1043 18.7512 86.4247 18.75 85.7156C18.7494 85.3637 18.8182 85.0152 18.9524 84.6899C19.0866 84.3646 19.2837 84.069 19.5323 83.82C19.7809 83.5709 20.0762 83.3734 20.4012 83.2386C20.7262 83.1037 21.0747 83.0344 21.4266 83.0344Z" fill="#56B3B4"/>
<path id="Rectangle_6" d="M21.4266 104.466H48.2109C48.9208 104.466 49.6016 104.748 50.1035 105.25C50.6055 105.752 50.8875 106.432 50.8875 107.142C50.8875 107.852 50.6055 108.533 50.1035 109.035C49.6016 109.537 48.9208 109.819 48.2109 109.819H21.4266C20.7167 109.819 20.0359 109.537 19.5339 109.035C19.032 108.533 18.75 107.852 18.75 107.142C18.75 106.432 19.032 105.752 19.5339 105.25C20.0359 104.748 20.7167 104.466 21.4266 104.466Z" fill="#BF85BF"/>
<path id="Rectangle_7" d="M21.4266 61.6078H48.2109C48.9208 61.6078 49.6016 61.8898 50.1035 62.3918C50.6055 62.8937 50.8875 63.5745 50.8875 64.2844C50.8875 64.9943 50.6055 65.675 50.1035 66.177C49.6016 66.679 48.9208 66.9609 48.2109 66.9609H21.4266C20.7167 66.9609 20.0359 66.679 19.5339 66.177C19.032 65.675 18.75 64.9943 18.75 64.2844C18.75 63.5745 19.032 62.8937 19.5339 62.3918C20.0359 61.8898 20.7167 61.6078 21.4266 61.6078Z" fill="#BF85BF"/>
<path id="Rectangle_8" d="M48.2156 29.4656H101.784C102.494 29.4656 103.175 29.7476 103.677 30.2496C104.179 30.7515 104.461 31.4323 104.461 32.1422C104.461 32.8521 104.179 33.5328 103.677 34.0348C103.175 34.5368 102.494 34.8187 101.784 34.8187H48.2156C47.5058 34.8187 46.825 34.5368 46.323 34.0348C45.8211 33.5328 45.5391 32.8521 45.5391 32.1422C45.5391 31.4323 45.8211 30.7515 46.323 30.2496C46.825 29.7476 47.5058 29.4656 48.2156 29.4656Z" fill="#F7BA3E"/>
<path id="Rectangle_9" d="M21.4266 29.4656H37.5C38.2099 29.4656 38.8907 29.7476 39.3926 30.2496C39.8946 30.7515 40.1766 31.4323 40.1766 32.1422C40.1772 32.4941 40.1084 32.8426 39.9742 33.1679C39.8399 33.4932 39.6429 33.7888 39.3943 34.0378C39.1457 34.2869 38.8504 34.4844 38.5254 34.6192C38.2003 34.7541 37.8519 34.8234 37.5 34.8234H21.4266C21.0747 34.8234 20.7262 34.7541 20.4012 34.6192C20.0762 34.4844 19.7809 34.2869 19.5323 34.0378C19.2837 33.7888 19.0866 33.4932 18.9524 33.1679C18.8182 32.8426 18.7494 32.4941 18.75 32.1422C18.75 31.4323 19.032 30.7515 19.534 30.2496C20.0359 29.7476 20.7167 29.4656 21.4266 29.4656Z" fill="#EA5E5E"/>
<path id="Rectangle_10" d="M42.8578 115.177H48.2157C48.9255 115.177 49.6063 115.459 50.1083 115.961C50.6102 116.462 50.8922 117.143 50.8922 117.853C50.8922 118.563 50.6102 119.244 50.1083 119.746C49.6063 120.248 48.9255 120.53 48.2157 120.53H42.8578C42.148 120.53 41.4672 120.248 40.9652 119.746C40.4633 119.244 40.1813 118.563 40.1813 117.853C40.1813 117.143 40.4633 116.462 40.9652 115.961C41.4672 115.459 42.148 115.177 42.8578 115.177Z" fill="#F7BA3E"/>
<path id="Rectangle_11" d="M42.8578 50.8922H48.2157C48.9255 50.8922 49.6063 51.1742 50.1083 51.6761C50.6102 52.1781 50.8922 52.8589 50.8922 53.5687C50.8922 54.2786 50.6102 54.9594 50.1083 55.4614C49.6063 55.9633 48.9255 56.2453 48.2157 56.2453H42.8578C42.148 56.2453 41.4672 55.9633 40.9652 55.4614C40.4633 54.9594 40.1813 54.2786 40.1813 53.5687C40.1813 52.8589 40.4633 52.1781 40.9652 51.6761C41.4672 51.1742 42.148 50.8922 42.8578 50.8922Z" fill="#56B3B4"/>
<path id="Rectangle_12" d="M21.4266 115.177H32.1422C32.8521 115.177 33.5329 115.459 34.0348 115.961C34.5368 116.462 34.8188 117.143 34.8188 117.853C34.8188 118.563 34.5368 119.244 34.0348 119.746C33.5329 120.248 32.8521 120.53 32.1422 120.53H21.4266C20.7175 120.53 20.0374 120.248 19.5356 119.747C19.0338 119.246 18.7512 118.567 18.75 117.858C18.7494 117.506 18.8182 117.157 18.9524 116.832C19.0866 116.507 19.2837 116.211 19.5323 115.962C19.7809 115.713 20.0762 115.516 20.4012 115.381C20.7262 115.246 21.0747 115.177 21.4266 115.177Z" fill="#56B3B4"/>
<path id="Rectangle_13" d="M21.4266 50.8922H32.1422C32.8521 50.8922 33.5329 51.1742 34.0348 51.6761C34.5368 52.1781 34.8188 52.8589 34.8188 53.5687C34.8194 53.9206 34.7506 54.2692 34.6164 54.5945C34.4821 54.9197 34.2851 55.2153 34.0365 55.4644C33.7879 55.7134 33.4926 55.911 33.1676 56.0458C32.8425 56.1806 32.4941 56.25 32.1422 56.25H21.4266C20.7167 56.25 20.0359 55.968 19.534 55.466C19.032 54.9641 18.75 54.2833 18.75 53.5734C18.7494 53.2215 18.8182 52.873 18.9524 52.5477C19.0866 52.2224 19.2837 51.9268 19.5323 51.6778C19.7809 51.4287 20.0762 51.2312 20.4012 51.0964C20.7262 50.9616 21.0747 50.8922 21.4266 50.8922Z" fill="#F7BA3E"/>
<path id="Rectangle_14" opacity="0.5" d="M91.0734 115.177H96.4312C97.1411 115.177 97.8219 115.459 98.3238 115.961C98.8258 116.462 99.1078 117.143 99.1078 117.853C99.1078 118.563 98.8258 119.244 98.3238 119.746C97.8219 120.248 97.1411 120.53 96.4312 120.53H91.0734C90.3635 120.53 89.6828 120.248 89.1808 119.746C88.6788 119.244 88.3969 118.563 88.3969 117.853C88.3969 117.143 88.6788 116.462 89.1808 115.961C89.6828 115.459 90.3635 115.177 91.0734 115.177Z" fill="#4D616E"/>
<path id="Rectangle_15" opacity="0.5" d="M58.9266 115.177H80.3531C81.063 115.177 81.7438 115.459 82.2457 115.961C82.7477 116.462 83.0297 117.143 83.0297 117.853C83.0297 118.563 82.7477 119.244 82.2457 119.746C81.7438 120.248 81.063 120.53 80.3531 120.53H58.9266C58.2175 120.53 57.5374 120.248 57.0356 119.747C56.5338 119.246 56.2512 118.567 56.25 117.858C56.2494 117.506 56.3182 117.157 56.4524 116.832C56.5866 116.507 56.7837 116.211 57.0323 115.962C57.2809 115.713 57.5762 115.516 57.9012 115.381C58.2262 115.246 58.5747 115.177 58.9266 115.177Z" fill="#4D616E"/>
<path id="Rectangle_16" opacity="0.5" d="M107.142 115.177H128.569C129.279 115.177 129.959 115.459 130.461 115.961C130.963 116.462 131.245 117.143 131.245 117.853C131.245 118.563 130.963 119.244 130.461 119.746C129.959 120.248 129.279 120.53 128.569 120.53H107.142C106.432 120.53 105.752 120.248 105.25 119.746C104.748 119.244 104.466 118.563 104.466 117.853C104.466 117.143 104.748 116.462 105.25 115.961C105.752 115.459 106.432 115.177 107.142 115.177Z" fill="#4D616E"/>
<path id="Rectangle_17" d="M64.2844 72.3234H107.142C107.852 72.3234 108.533 72.6054 109.035 73.1074C109.537 73.6093 109.819 74.2901 109.819 75C109.819 75.7099 109.537 76.3907 109.035 76.8926C108.533 77.3946 107.852 77.6766 107.142 77.6766H64.2844C63.5745 77.6766 62.8937 77.3946 62.3917 76.8926C61.8898 76.3907 61.6078 75.7099 61.6078 75C61.6078 74.2901 61.8898 73.6093 62.3917 73.1074C62.8937 72.6054 63.5745 72.3234 64.2844 72.3234Z" fill="#56B3B4"/>
<path id="Rectangle_18" d="M37.5 72.3234H53.5734C54.2833 72.3234 54.9641 72.6054 55.466 73.1074C55.968 73.6093 56.25 74.2901 56.25 75C56.25 75.7099 55.968 76.3907 55.466 76.8926C54.9641 77.3946 54.2833 77.6766 53.5734 77.6766H37.5C36.7901 77.6766 36.1093 77.3946 35.6074 76.8926C35.1054 76.3907 34.8234 75.7099 34.8234 75C34.8234 74.2901 35.1054 73.6093 35.6074 73.1074C36.1093 72.6054 36.7901 72.3234 37.5 72.3234Z" fill="#F7BA3E"/>
<path id="Rectangle_19" d="M21.4266 72.3234H26.7844C27.1363 72.3228 27.4848 72.3916 27.8101 72.5258C28.1354 72.6601 28.431 72.8571 28.68 73.1057C28.9291 73.3543 29.1266 73.6496 29.2614 73.9746C29.3962 74.2997 29.4656 74.6481 29.4656 75C29.4656 75.7099 29.1836 76.3907 28.6817 76.8926C28.1797 77.3946 27.4989 77.6766 26.7891 77.6766H21.4266C20.7167 77.6766 20.0359 77.3946 19.5339 76.8926C19.032 76.3907 18.75 75.7099 18.75 75C18.75 74.2901 19.032 73.6093 19.5339 73.1074C20.0359 72.6054 20.7167 72.3234 21.4266 72.3234Z" fill="#EA5E5E"/>
<path id="Rectangle_20" d="M69.6422 40.1766H91.0688C91.421 40.1759 91.77 40.2449 92.0956 40.3794C92.4212 40.5139 92.717 40.7114 92.9661 40.9605C93.2152 41.2096 93.4127 41.5054 93.5472 41.831C93.6817 42.1566 93.7506 42.5055 93.75 42.8578C93.75 43.5677 93.468 44.2485 92.9661 44.7504C92.4641 45.2524 91.7833 45.5344 91.0735 45.5344H69.6422C68.9323 45.5344 68.2515 45.2524 67.7496 44.7504C67.2476 44.2485 66.9656 43.5677 66.9656 42.8578C66.965 42.5059 67.0338 42.1574 67.168 41.8321C67.3023 41.5068 67.4993 41.2112 67.7479 40.9622C67.9965 40.7131 68.2918 40.5156 68.6168 40.3808C68.9419 40.2459 69.2903 40.1766 69.6422 40.1766Z" fill="#BF85BF"/>
<path id="Rectangle_21" d="M21.4266 40.1766H58.9266C59.6364 40.1766 60.3172 40.4586 60.8192 40.9605C61.3211 41.4625 61.6031 42.1433 61.6031 42.8531C61.6031 43.563 61.3211 44.2438 60.8192 44.7457C60.3172 45.2477 59.6364 45.5297 58.9266 45.5297H21.4266C20.7175 45.5297 20.0374 45.2483 19.5356 44.7474C19.0338 44.2465 18.7512 43.5669 18.75 42.8578C18.7494 42.5059 18.8182 42.1574 18.9524 41.8321C19.0866 41.5068 19.2837 41.2112 19.5323 40.9622C19.7809 40.7131 20.0762 40.5155 20.4012 40.3807C20.7262 40.2459 21.0747 40.1766 21.4266 40.1766Z" fill="#56B3B4"/>
<path id="Rectangle_22" d="M37.5 93.75H85.7156C86.0671 93.75 86.4152 93.8192 86.7399 93.9537C87.0646 94.0883 87.3597 94.2854 87.6082 94.5339C87.8568 94.7825 88.0539 95.0775 88.1884 95.4023C88.323 95.727 88.3922 96.0751 88.3922 96.4266C88.3922 97.1364 88.1102 97.8172 87.6082 98.3192C87.1063 98.8211 86.4255 99.1031 85.7156 99.1031H37.5C36.7901 99.1031 36.1093 98.8211 35.6074 98.3192C35.1054 97.8172 34.8234 97.1364 34.8234 96.4266C34.8234 96.0751 34.8927 95.727 35.0272 95.4023C35.1617 95.0775 35.3588 94.7825 35.6074 94.5339C35.8559 94.2854 36.151 94.0883 36.4757 93.9537C36.8004 93.8192 37.1485 93.75 37.5 93.75Z" fill="#F7BA3E"/>
<path id="Rectangle_23" d="M21.4266 93.75H26.7844C27.1359 93.75 27.4839 93.8192 27.8087 93.9537C28.1334 94.0883 28.4284 94.2854 28.677 94.5339C28.9255 94.7825 29.1227 95.0775 29.2572 95.4023C29.3917 95.727 29.4609 96.0751 29.4609 96.4266C29.4609 97.1364 29.1789 97.8172 28.677 98.3192C28.175 98.8211 27.4942 99.1031 26.7844 99.1031H21.4266C20.7167 99.1031 20.0359 98.8211 19.5339 98.3192C19.032 97.8172 18.75 97.1364 18.75 96.4266C18.75 96.0751 18.8192 95.727 18.9537 95.4023C19.0883 95.0775 19.2854 94.7825 19.5339 94.5339C19.7825 94.2854 20.0775 94.0883 20.4023 93.9537C20.727 93.8192 21.0751 93.75 21.4266 93.75Z" fill="#BF85BF"/>
<path id="Rectangle_24" d="M85.7156 50.8922H112.5C113.21 50.8922 113.891 51.1742 114.393 51.6761C114.895 52.1781 115.177 52.8589 115.177 53.5687C115.177 53.9206 115.108 54.2692 114.974 54.5945C114.84 54.9197 114.643 55.2153 114.394 55.4644C114.146 55.7134 113.85 55.911 113.525 56.0458C113.2 56.1806 112.852 56.25 112.5 56.25H85.7156C85.0058 56.25 84.325 55.968 83.823 55.466C83.3211 54.9641 83.0391 54.2833 83.0391 53.5734C83.0385 53.2215 83.1072 52.873 83.2415 52.5477C83.3757 52.2224 83.5727 51.9268 83.8214 51.6778C84.07 51.4287 84.3652 51.2312 84.6903 51.0964C85.0153 50.9616 85.3637 50.8922 85.7156 50.8922Z" fill="#EA5E5E"/>
<path id="Rectangle_25" d="M85.7156 61.6078H112.5C113.21 61.6078 113.891 61.8898 114.393 62.3918C114.895 62.8937 115.177 63.5745 115.177 64.2844C115.177 64.9943 114.895 65.675 114.393 66.177C113.891 66.679 113.21 66.9609 112.5 66.9609H85.7156C85.0058 66.9609 84.325 66.679 83.823 66.177C83.3211 65.675 83.0391 64.9943 83.0391 64.2844C83.0391 63.5745 83.3211 62.8937 83.823 62.3918C84.325 61.8898 85.0058 61.6078 85.7156 61.6078Z" fill="#F7BA3E"/>
<path id="Rectangle_26" d="M21.4266 18.75H85.7156C86.4255 18.75 87.1063 19.032 87.6082 19.5339C88.1102 20.0359 88.3922 20.7167 88.3922 21.4266C88.3922 22.1364 88.1102 22.8172 87.6082 23.3192C87.1063 23.8211 86.4255 24.1031 85.7156 24.1031H21.4266C20.7167 24.1031 20.0359 23.8211 19.5339 23.3192C19.032 22.8172 18.75 22.1364 18.75 21.4266C18.75 20.7167 19.032 20.0359 19.5339 19.5339C20.0359 19.032 20.7167 18.75 21.4266 18.75Z" fill="#56B3B4"/>
<path id="Rectangle_27" opacity="0.5" d="M96.4266 18.75H128.569C128.921 18.7494 129.269 18.8182 129.594 18.9524C129.92 19.0866 130.215 19.2837 130.464 19.5323C130.713 19.7809 130.911 20.0762 131.046 20.4012C131.181 20.7262 131.25 21.0747 131.25 21.4266C131.25 22.1364 130.968 22.8172 130.466 23.3192C129.964 23.8211 129.283 24.1031 128.573 24.1031H96.4266C96.0751 24.1031 95.727 24.0339 95.4023 23.8994C95.0775 23.7649 94.7825 23.5677 94.5339 23.3192C94.2854 23.0706 94.0883 22.7756 93.9537 22.4508C93.8192 22.1261 93.75 21.7781 93.75 21.4266C93.75 21.0751 93.8192 20.727 93.9537 20.4023C94.0883 20.0776 94.2854 19.7825 94.5339 19.534C94.7825 19.2854 95.0775 19.0883 95.4023 18.9537C95.727 18.8192 96.0751 18.75 96.4266 18.75Z" fill="#4D616E"/>
<path id="Rectangle_28" opacity="0.5" d="M96.4266 93.75H107.142C107.494 93.75 107.842 93.8192 108.166 93.9537C108.491 94.0883 108.786 94.2854 109.035 94.5339C109.283 94.7825 109.48 95.0775 109.615 95.4023C109.75 95.727 109.819 96.0751 109.819 96.4266C109.819 97.1364 109.537 97.8172 109.035 98.3192C108.533 98.8211 107.852 99.1031 107.142 99.1031H96.4266C96.0751 99.1031 95.727 99.0339 95.4023 98.8994C95.0775 98.7649 94.7825 98.5677 94.5339 98.3192C94.2854 98.0706 94.0883 97.7756 93.9537 97.4508C93.8192 97.1261 93.75 96.778 93.75 96.4266C93.75 96.0751 93.8192 95.727 93.9537 95.4023C94.0883 95.0775 94.2854 94.7825 94.5339 94.5339C94.7825 94.2854 95.0775 94.0883 95.4023 93.9537C95.727 93.8192 96.0751 93.75 96.4266 93.75Z" fill="#4D616E"/>
<path id="Rectangle_29" opacity="0.5" d="M117.858 93.75H128.573C128.925 93.75 129.273 93.8192 129.598 93.9537C129.922 94.0883 130.218 94.2854 130.466 94.5339C130.715 94.7825 130.912 95.0775 131.046 95.4023C131.181 95.727 131.25 96.0751 131.25 96.4266C131.25 96.778 131.181 97.1261 131.046 97.4508C130.912 97.7756 130.715 98.0706 130.466 98.3192C130.218 98.5677 129.922 98.7649 129.598 98.8994C129.273 99.0339 128.925 99.1031 128.573 99.1031H117.858C117.148 99.1031 116.467 98.8211 115.965 98.3192C115.463 97.8172 115.181 97.1364 115.181 96.4266C115.181 96.0751 115.251 95.727 115.385 95.4023C115.52 95.0775 115.717 94.7825 115.965 94.5339C116.214 94.2854 116.509 94.0883 116.834 93.9537C117.158 93.8192 117.506 93.75 117.858 93.75Z" fill="#4D616E"/>
<path id="Rectangle_30" opacity="0.5" d="M112.5 83.0344H128.573C129.283 83.0344 129.964 83.3164 130.466 83.8183C130.968 84.3203 131.25 85.0011 131.25 85.7109C131.25 86.4208 130.968 87.1016 130.466 87.6035C129.964 88.1055 129.283 88.3875 128.573 88.3875H112.5C111.79 88.3875 111.109 88.1055 110.607 87.6035C110.105 87.1016 109.823 86.4208 109.823 85.7109C109.823 85.0011 110.105 84.3203 110.607 83.8183C111.109 83.3164 111.79 83.0344 112.5 83.0344Z" fill="#4D616E"/>
<path id="Rectangle_31" opacity="0.5" d="M112.5 29.4656H128.573C129.283 29.4656 129.964 29.7476 130.466 30.2496C130.968 30.7515 131.25 31.4323 131.25 32.1422C131.25 32.8521 130.968 33.5328 130.466 34.0348C129.964 34.5368 129.283 34.8187 128.573 34.8187H112.5C111.79 34.8187 111.109 34.5368 110.607 34.0348C110.105 33.5328 109.823 32.8521 109.823 32.1422C109.823 31.4323 110.105 30.7515 110.607 30.2496C111.109 29.7476 111.79 29.4656 112.5 29.4656Z" fill="#4D616E"/>
<path id="Rectangle_32" opacity="0.5" d="M117.858 72.3234H128.573C129.283 72.3234 129.964 72.6054 130.466 73.1074C130.968 73.6093 131.25 74.2901 131.25 75C131.25 75.7099 130.968 76.3907 130.466 76.8926C129.964 77.3946 129.283 77.6766 128.573 77.6766H117.858C117.506 77.6772 117.157 77.6084 116.832 77.4742C116.507 77.3399 116.211 77.1429 115.962 76.8943C115.713 76.6457 115.516 76.3504 115.381 76.0254C115.246 75.7003 115.177 75.3519 115.177 75C115.177 74.6481 115.246 74.2997 115.381 73.9746C115.516 73.6496 115.713 73.3543 115.962 73.1057C116.211 72.8571 116.507 72.6601 116.832 72.5258C117.157 72.3916 117.506 72.3228 117.858 72.3234Z" fill="#4D616E"/>
<path id="Rectangle_33" opacity="0.5" d="M117.858 40.1766H128.573C128.925 40.1766 129.274 40.2459 129.599 40.3807C129.924 40.5155 130.219 40.7131 130.468 40.9622C130.716 41.2112 130.913 41.5068 131.048 41.8321C131.182 42.1574 131.251 42.5059 131.25 42.8578C131.25 43.5677 130.968 44.2485 130.466 44.7504C129.964 45.2524 129.283 45.5344 128.573 45.5344H117.858C117.148 45.5344 116.467 45.2524 115.965 44.7504C115.463 44.2485 115.181 43.5677 115.181 42.8578C115.181 42.5059 115.249 42.1574 115.384 41.8321C115.518 41.5068 115.715 41.2112 115.964 40.9622C116.212 40.7131 116.507 40.5155 116.832 40.3807C117.158 40.2459 117.506 40.1766 117.858 40.1766Z" fill="#4D616E"/>
<path id="Rectangle_34" opacity="0.5" d="M123.216 50.8922H128.573C128.925 50.8922 129.273 50.9614 129.598 51.0959C129.922 51.2304 130.218 51.4276 130.466 51.6761C130.715 51.9247 130.912 52.2197 131.046 52.5445C131.181 52.8692 131.25 53.2173 131.25 53.5687C131.25 53.9202 131.181 54.2683 131.046 54.593C130.912 54.9178 130.715 55.2128 130.466 55.4614C130.218 55.7099 129.922 55.9071 129.598 56.0416C129.273 56.1761 128.925 56.2453 128.573 56.2453H123.216C122.506 56.2453 121.825 55.9633 121.323 55.4614C120.821 54.9594 120.539 54.2786 120.539 53.5687C120.539 52.8589 120.821 52.1781 121.323 51.6761C121.825 51.1742 122.506 50.8922 123.216 50.8922Z" fill="#4D616E"/>
<path id="Rectangle_35" opacity="0.5" d="M123.216 61.6078H128.573C128.925 61.6078 129.273 61.6771 129.598 61.8116C129.922 61.9461 130.218 62.1432 130.466 62.3918C130.715 62.6403 130.912 62.9354 131.046 63.2601C131.181 63.5848 131.25 63.9329 131.25 64.2844C131.25 64.6359 131.181 64.9839 131.046 65.3087C130.912 65.6334 130.715 65.9285 130.466 66.177C130.218 66.4255 129.922 66.6227 129.598 66.7572C129.273 66.8917 128.925 66.9609 128.573 66.9609H123.216C122.506 66.9609 121.825 66.679 121.323 66.177C120.821 65.675 120.539 64.9943 120.539 64.2844C120.539 63.5745 120.821 62.8937 121.323 62.3918C121.825 61.8898 122.506 61.6078 123.216 61.6078Z" fill="#4D616E"/>
<path id="Rectangle_36" opacity="0.5" d="M80.3578 104.466H128.573C129.283 104.466 129.964 104.748 130.466 105.25C130.968 105.752 131.25 106.432 131.25 107.142C131.25 107.852 130.968 108.533 130.466 109.035C129.964 109.537 129.283 109.819 128.573 109.819H80.3578C79.648 109.819 78.9672 109.537 78.4652 109.035C77.9633 108.533 77.6813 107.852 77.6813 107.142C77.6813 106.432 77.9633 105.752 78.4652 105.25C78.9672 104.748 79.648 104.466 80.3578 104.466Z" fill="#4D616E"/>
<path id="Rectangle_37" opacity="0.5" d="M58.9266 104.466H69.6422C70.3521 104.466 71.0329 104.748 71.5348 105.25C72.0368 105.752 72.3188 106.432 72.3188 107.142C72.3188 107.852 72.0368 108.533 71.5348 109.035C71.0329 109.537 70.3521 109.819 69.6422 109.819H58.9266C58.2167 109.819 57.5359 109.537 57.0339 109.035C56.532 108.533 56.25 107.852 56.25 107.142C56.25 106.432 56.532 105.752 57.0339 105.25C57.5359 104.748 58.2167 104.466 58.9266 104.466Z" fill="#4D616E"/>
<path id="Rectangle_38" opacity="0.5" d="M101.784 125.892H128.569C129.279 125.892 129.959 126.174 130.461 126.676C130.963 127.178 131.245 127.859 131.245 128.569C131.245 128.92 131.176 129.268 131.042 129.593C130.907 129.918 130.71 130.213 130.461 130.461C130.213 130.71 129.918 130.907 129.593 131.042C129.268 131.176 128.92 131.245 128.569 131.245H101.784C101.433 131.245 101.085 131.176 100.76 131.042C100.435 130.907 100.14 130.71 99.8917 130.461C99.6432 130.213 99.446 129.918 99.3115 129.593C99.177 129.268 99.1078 128.92 99.1078 128.569C99.1078 127.859 99.3898 127.178 99.8917 126.676C100.394 126.174 101.074 125.892 101.784 125.892Z" fill="#4D616E"/>
<path id="Rectangle_39" opacity="0.5" d="M58.9266 125.892H91.0687C91.7786 125.892 92.4594 126.174 92.9614 126.676C93.4633 127.178 93.7453 127.859 93.7453 128.569C93.7453 128.92 93.6761 129.268 93.5416 129.593C93.4071 129.918 93.2099 130.213 92.9614 130.461C92.7128 130.71 92.4178 130.907 92.093 131.042C91.7683 131.176 91.4202 131.245 91.0687 131.245H58.9266C58.2175 131.245 57.5374 130.964 57.0356 130.463C56.5338 129.962 56.2512 129.282 56.25 128.573C56.2494 128.222 56.3182 127.873 56.4524 127.548C56.5866 127.222 56.7837 126.927 57.0323 126.678C57.2809 126.429 57.5762 126.231 57.9012 126.096C58.2262 125.962 58.5747 125.892 58.9266 125.892Z" fill="#4D616E"/>
<path id="Rectangle_40" opacity="0.5" d="M58.9266 50.8922H75C75.7099 50.8922 76.3907 51.1742 76.8926 51.6761C77.3946 52.1781 77.6766 52.8589 77.6766 53.5687C77.6772 53.9206 77.6084 54.2692 77.4742 54.5945C77.3399 54.9197 77.1429 55.2153 76.8943 55.4644C76.6457 55.7134 76.3504 55.911 76.0254 56.0458C75.7003 56.1806 75.3519 56.25 75 56.25H58.9266C58.2167 56.25 57.5359 55.968 57.034 55.466C56.532 54.9641 56.25 54.2833 56.25 53.5734C56.2494 53.2215 56.3182 52.873 56.4524 52.5477C56.5866 52.2224 56.7837 51.9268 57.0323 51.6778C57.2809 51.4287 57.5762 51.2312 57.9012 51.0964C58.2262 50.9616 58.5747 50.8922 58.9266 50.8922Z" fill="#4D616E"/>
<path id="Rectangle_41" opacity="0.5" d="M58.9266 61.6078H75C75.7099 61.6078 76.3907 61.8898 76.8926 62.3918C77.3946 62.8937 77.6766 63.5745 77.6766 64.2844C77.6766 64.9943 77.3946 65.675 76.8926 66.177C76.3907 66.679 75.7099 66.9609 75 66.9609H58.9266C58.2167 66.9609 57.5359 66.679 57.0339 66.177C56.532 65.675 56.25 64.9943 56.25 64.2844C56.25 63.5745 56.532 62.8937 57.0339 62.3918C57.5359 61.8898 58.2167 61.6078 58.9266 61.6078Z" fill="#4D616E"/>
</g>
</svg>
