<svg width="150" height="150" viewBox="0 0 150 150" fill="none" xmlns="http://www.w3.org/2000/svg">
<g id="typescript">
<path id="Vector" d="M9.375 75V140.625H75H140.625V75V9.375H75H9.375V75Z" fill="#007ACC"/>
<path id="Vector_2" d="M115.144 69.7687C118.287 70.5 121.143 72.1458 123.352 74.4984C124.568 75.7713 125.624 77.1881 126.497 78.7172C126.539 78.8859 120.83 82.7156 117.37 84.8625C117.244 84.9469 116.747 84.3937 116.184 83.5687C115.554 82.4793 114.657 81.5676 113.578 80.9192C112.499 80.2707 111.274 79.9066 110.016 79.8609C106.036 79.5891 103.453 81.675 103.495 85.1531C103.461 86.0073 103.656 86.8551 104.058 87.6094C104.934 89.4234 106.556 90.5062 111.661 92.7141C121.036 96.7547 125.077 99.4219 127.598 103.214C129.002 105.609 129.866 108.282 130.128 111.045C130.39 113.809 130.045 116.596 129.117 119.212C127.844 122.085 125.825 124.565 123.27 126.393C120.714 128.221 117.716 129.332 114.586 129.609C111.262 129.991 107.903 129.956 104.587 129.506C99.5076 128.672 94.8279 126.235 91.2328 122.55C89.8755 121.021 88.7265 119.318 87.8156 117.487C88.1994 117.202 88.6037 116.945 89.025 116.719C89.6062 116.386 91.8375 115.116 93.9 113.906L97.65 111.717L98.4375 112.875C99.7723 114.784 101.472 116.409 103.439 117.656C105.419 118.742 107.66 119.256 109.915 119.142C112.17 119.027 114.348 118.289 116.208 117.009C117.161 116.075 117.757 114.835 117.89 113.507C118.024 112.178 117.687 110.845 116.939 109.739C115.917 108.281 113.836 107.053 107.92 104.489C103.281 102.919 99.0569 100.319 95.564 96.8859C93.898 94.9877 92.6677 92.7478 91.9594 90.3234C91.4352 87.5615 91.3577 84.7334 91.7297 81.9469C92.4249 78.7408 94.0888 75.826 96.496 73.5974C98.9033 71.3687 101.937 69.934 105.187 69.4875C108.502 69.0807 111.858 69.1755 115.144 69.7687ZM84.3328 75.2484L84.375 80.625H67.2937V129.169H55.2094V80.625H38.1234V75.3562C38.077 73.5487 38.1255 71.74 38.2687 69.9375C38.3297 69.8531 48.7266 69.8109 61.3312 69.8344L84.2672 69.8953L84.3328 75.2484Z" fill="white"/>
</g>
</svg>
